<?xml version="1.0" encoding="UTF-8"?>
<!DOCTYPE svg PUBLIC "-//W3C//DTD SVG 1.1//EN" "http://www.w3.org/Graphics/SVG/1.1/DTD/svg11.dtd">
<!-- Creator: CorelDRAW 2018 (64-Bit) -->
<svg xmlns="http://www.w3.org/2000/svg" xml:space="preserve" width="255.071mm" height="58.5794mm" version="1.1" style="shape-rendering:geometricPrecision; text-rendering:geometricPrecision; image-rendering:optimizeQuality; fill-rule:evenodd; clip-rule:evenodd" viewBox="0 0 10794.91 2479.15" xmlns:xlink="http://www.w3.org/1999/xlink">
 <defs>
  <style type="text/css">
   <![CDATA[
    .fil0 {fill:#3C4B66}
   ]]>
  </style>
 </defs>
 <g id="Layer_x0020_1">
  <metadata id="CorelCorpID_0Corel-Layer"/>
  <g id="_1598531205056">
   <path class="fil0" d="M9856.42 2022.4l28.66 0.37c38.84,0 69.97,12.47 93.4,37.54 20.96,22.56 31.44,50.31 31.44,83.11 0,35.17 -12.01,65.44 -36.07,91.11 -27.12,28.64 -62.88,42.88 -107.27,42.88l-53.64 0 0 -255.01 43.47 0zm90.13 -65.35l0 0c40.21,-40.43 35.15,-104.73 -4.08,-143.87 -38.51,-38 -80.46,-35.42 -129.52,-35.42l0 205.84c49.23,0 96.62,10.45 133.6,-26.54zm-242.72 362.21l0 0 207.15 0c64.11,0 115.6,-17.8 154.43,-53.57 35.14,-32.05 52.72,-71.08 52.72,-116.93 0,-44.67 -16.96,-82.36 -50.86,-113.37 -19.49,-17.62 -42.58,-30.74 -69.28,-39.36 9.75,-5.27 18.75,-11.4 27.02,-18.39 29.96,-25.61 44.95,-56.74 44.95,-93.62 0,-37.87 -15.54,-70.1 -46.58,-96.57 -34.32,-29.54 -79.83,-44.24 -136.49,-44.24l-73.94 0 -109.12 0 0 576.06z"/>
   <path class="fil0" d="M2867.1 1202.44l-67.34 141.71c-4.99,12.06 -8.47,20.86 -10.47,26.38 -1.99,5.53 -2.99,11.81 -2.99,18.85 0,12.06 4.24,21.61 12.72,28.65 8.48,7.03 20.2,12.56 35.17,16.58l0 24.12 -329.2 0 0 -24.12c20.94,-4.02 36.4,-11.56 46.38,-22.61 9.98,-11.06 20.95,-29.15 32.92,-54.28l366.62 -773.4c4.99,-9.04 9.23,-18.34 12.72,-27.89 3.5,-9.55 5.24,-18.85 5.24,-27.89 0,-25.13 -13.97,-42.22 -41.9,-51.26l0 -24.12 353.15 0 0 24.12c-9.98,3.01 -19.7,7.54 -29.18,13.57 -9.48,6.03 -14.22,16.08 -14.22,30.15 0,6.03 1,12.56 2.99,19.6 2,7.03 5.49,16.58 10.47,28.64l381.58 774.91c13.97,29.15 26.69,50.51 38.16,64.07 11.46,13.57 28.67,22.36 51.62,26.38l0 24.12 -366.61 0 0 -24.12c14.96,-2.01 26.68,-6.03 35.16,-12.06 8.47,-6.03 12.72,-15.58 12.72,-28.64 0,-18.09 -4.49,-34.67 -13.47,-49.75l-68.84 -141.71 -453.4 0zm228.95 -496l0 0 -164.6 358.81 326.22 0 -161.61 -358.81z"/>
   <path class="fil0" d="M4368.25 453.16c82.62,0 155.41,7.04 218.38,21.11 62.97,14.07 120.65,43.72 173.05,88.95 52.39,45.23 91.43,102.02 117.12,170.36 25.69,68.34 38.54,142.72 38.54,223.13 0,78.4 -12.85,152.27 -38.54,221.62 -25.69,69.35 -64.74,125.88 -117.12,169.61 -52.4,43.72 -110.58,73.12 -174.56,88.19 -63.98,15.08 -136.27,22.62 -216.87,22.62l-560.7 0 0 -24.12c15.12,-4.02 26.7,-10.05 34.76,-18.09 8.06,-8.04 12.09,-19.6 12.09,-34.67l0 -851.8c0,-15.07 -3.78,-26.63 -11.34,-34.67 -7.55,-8.04 -19.4,-14.07 -35.52,-18.09l0 -24.12 560.7 0zm-18.14 839.74l0 0c114.87,0 200.25,-27.39 256.17,-82.17 55.92,-54.78 83.88,-139.45 83.88,-254.03 0,-115.58 -27.46,-200.76 -82.37,-255.54 -54.92,-54.78 -140.8,-82.16 -257.68,-82.16l-276.57 0 0 673.9 276.57 0z"/>
   <path class="fil0" d="M6071.29 477.28c-22.76,4.02 -38.09,12.06 -46.01,24.12 -7.92,12.06 -21.28,37.19 -40.08,75.38l-342.88 750.79c-5.93,14.07 -11.13,26.38 -15.58,36.94 -4.45,10.55 -6.68,19.85 -6.68,27.89 0,11.05 4.7,20.35 14.1,27.89 9.4,7.54 20.04,12.31 31.92,14.32l0 24.12 -339.91 0 0 -24.12c11.88,-2.01 22.27,-6.53 31.17,-13.57 8.9,-7.03 13.36,-16.58 13.36,-28.64 0,-11.06 -2.72,-22.87 -8.16,-35.43 -5.44,-12.56 -9.65,-22.36 -12.62,-29.4l-342.87 -750.79c-10.89,-21.11 -21.28,-42.21 -31.17,-63.32 -12.87,-19.1 -31.67,-31.16 -56.4,-36.18l0 -24.12 351.78 0 0 24.12c-15.83,3.01 -27.71,7.29 -35.63,12.81 -7.92,5.53 -11.87,14.83 -11.87,27.89 0,11.06 2.23,22.11 6.68,33.17 4.45,11.06 7.66,19.6 9.65,25.63l262.72 589.47 261.24 -589.47c3.95,-8.04 7.66,-16.58 11.13,-25.63 3.46,-9.04 5.19,-20.1 5.19,-33.17 0,-12.06 -4.45,-21.11 -13.36,-27.14 -8.9,-6.03 -20.28,-10.55 -34.14,-13.57l0 -24.12 338.42 0 0 24.12z"/>
   <path class="fil0" d="M6321.72 1202.44l-66.49 141.71c-4.92,12.06 -8.37,20.86 -10.34,26.38 -1.97,5.53 -2.95,11.81 -2.95,18.85 0,12.06 4.18,21.61 12.55,28.65 8.37,7.03 19.95,12.56 34.72,16.58l0 24.12 -325.03 0 0 -24.12c20.68,-4.02 35.94,-11.56 45.8,-22.61 9.85,-11.06 20.68,-29.15 32.5,-54.28l361.96 -773.4c4.93,-9.04 9.11,-18.34 12.56,-27.89 3.45,-9.55 5.17,-18.85 5.17,-27.89 0,-25.13 -13.79,-42.22 -41.36,-51.26l0 -24.12 348.67 0 0 24.12c-9.85,3.01 -19.45,7.54 -28.81,13.57 -9.35,6.03 -14.03,16.08 -14.03,30.15 0,6.03 0.98,12.56 2.95,19.6 1.97,7.03 5.42,16.58 10.34,28.64l376.74 774.91c13.79,29.15 26.34,50.51 37.67,64.07 11.33,13.57 28.31,22.36 50.97,26.38l0 24.12 -361.96 0 0 -24.12c14.77,-2.01 26.34,-6.03 34.72,-12.06 8.37,-6.03 12.55,-15.58 12.55,-28.64 0,-18.09 -4.43,-34.67 -13.29,-49.75l-67.96 -141.71 -447.65 0zm226.04 -496l0 0 -162.51 358.81 322.08 0 -159.56 -358.81z"/>
   <path class="fil0" d="M7507.63 1381.84c0,15.07 3.75,26.64 11.24,34.67 7.51,8.04 19.26,14.07 35.26,18.09l0 24.12 -294.02 0 0 -24.12c15,-4.02 26.51,-10.05 34.5,-18.09 8,-8.04 12,-19.6 12,-34.67l0 -851.8c0,-15.07 -3.75,-26.63 -11.25,-34.67 -7.5,-8.04 -19.25,-14.07 -35.25,-18.09l0 -24.12 340.52 0 0 24.12c-10,3.01 -17.76,6.78 -23.26,11.31 -5.5,4.52 -8.25,11.81 -8.25,21.86 0,7.03 2,13.82 6,20.35 4,6.53 555.78,584.88 560.78,590.91l4.74 -591.66c0,-27.14 -16,-44.72 -48,-52.77l0 -24.12 294.01 0 0 24.12c-15,4.02 -26.5,10.05 -34.5,18.09 -7.99,8.04 -12,19.6 -12,34.67l0 851.8c0,15.07 3.75,26.64 11.25,34.67 7.5,8.04 19.25,14.07 35.25,18.09l0 24.12 -313.51 0 0 -24.12c12,-3.01 19.75,-6.28 23.25,-9.8 3.5,-3.52 5.76,-9.3 6.75,-17.34 0,-9.04 -2.75,-17.34 -8.25,-24.88 -5.5,-7.54 -14.75,-17.84 -27.75,-30.9l-559.52 -581.94 0 612.09z"/>
   <path class="fil0" d="M9652.71 1321.54l-17.77 15.07c-4.93,-4.02 -10.11,-8.29 -15.54,-12.81 -5.43,-4.52 -11.6,-6.78 -18.52,-6.78 -4.93,0 -10.36,1.26 -16.29,3.77 -5.92,2.51 -30.35,16.33 -73.29,41.71 -42.94,25.38 -99.7,50.5 -170.28,75.38 -70.58,24.88 -143.87,37.44 -219.88,37.44 -164.85,0 -303.54,-45.73 -416.07,-136.94 -112.52,-91.46 -168.79,-218.86 -168.79,-382.43 0,-164.58 56.01,-292.22 168.05,-383.18 112.04,-90.71 250.97,-136.19 416.81,-136.19 67.12,0 132.27,8.79 195.44,26.38 63.17,17.33 113.76,36.93 151.77,58.29 38,21.11 65.64,36.43 82.92,45.48 17.28,8.79 31.34,15.33 42.19,19.1 8.88,0 17.03,-1.26 24.44,-4.02 7.4,-2.51 13.08,-4.78 17.02,-6.53l17.77 13.57 -136.22 218.6 -19.25 -14.32c0,-18.85 -1.49,-32.41 -4.45,-40.95 -2.95,-8.54 -17.52,-24.12 -43.68,-47.49 -26.16,-23.12 -67.87,-44.97 -125.12,-65.33 -57.25,-20.61 -116.97,-30.91 -179.16,-30.91 -109.57,0 -201.61,30.65 -276.14,91.71 -74.53,61.31 -111.79,146.49 -111.79,255.79 0,108.3 37.52,193.23 112.54,255.04 75.01,61.56 166.82,92.47 275.4,92.47 77.99,0 156.22,-17.59 234.69,-52.77 78.48,-35.18 117.71,-70.35 117.71,-105.53l0 -19.6 19.25 -12.06 136.22 208.05z"/>
   <path class="fil0" d="M10079.2 1292.9l638.17 0c27.84,0 45.73,-16.59 53.68,-49.75l23.86 0 0 260.82 -22.37 0c-3.98,-13.57 -10.2,-24.63 -18.64,-32.92 -8.45,-8.29 -20.13,-12.31 -35.04,-12.31l-902.1 0 0 -24.12c14.91,-4.02 26.34,-10.05 34.29,-18.09 7.96,-8.04 11.93,-19.6 11.93,-34.67l0 -851.8c0,-13.06 -2.48,-23.62 -7.45,-31.66 -4.97,-8.04 -17.89,-15.07 -38.77,-21.11l0 -24.12 885.7 0c14.91,0 26.34,-3.77 34.29,-11.3 7.95,-7.54 13.92,-19.35 17.9,-35.43l23.86 0 0 259.31 -23.86 0c-3.98,-15.08 -9.95,-26.64 -17.9,-34.67 -7.95,-8.04 -19.38,-12.06 -34.29,-12.06l-623.27 0 0 238.2 404.08 0c12.92,0 23.36,-2.51 31.31,-7.54 7.95,-5.03 14.91,-18.09 20.88,-39.2l23.86 0 0 253.28 -23.86 0c-3.98,-15.08 -9.95,-26.64 -17.89,-34.68 -7.95,-8.04 -19.39,-12.06 -34.3,-12.06l-404.08 0 0 275.9z"/>
   <path class="fil0" d="M5900.67 1729.2c148.91,0 225.51,69.23 261.98,127.25l-53.91 50.24c-25.93,-41.56 -60.92,-110.42 -184.11,-108.03 -123.19,2.39 -190.24,103.37 -190.24,231.64 0,128.28 90.52,232.26 202.17,232.26 78.9,0 147.22,-51.92 180.54,-127.62l64.03 41.69c-54.81,92.32 -131.55,154.77 -280.46,154.77 -148.91,0 -304.98,-139.06 -304.98,-305.35 0,-166.29 156.08,-296.85 304.98,-296.85z"/>
   <path class="fil0" d="M5309.87 2102.2l-78.86 -184.6 -88.79 184.6 167.64 0zm-192.63 53.91l0 0 -46.77 97.52c-12.01,24.94 -21.79,49.88 -23.94,64.47l-101.81 0 279.84 -585.59 58.31 0 266.87 587.39 -155.34 -0.15c-7.98,-49.08 -46.67,-124.1 -61.32,-163.63l-215.84 0z"/>
   <path class="fil0" d="M6641.65 2102.2l-78.85 -184.6 -88.79 184.6 167.64 0zm-192.63 53.91l0 0 -46.77 97.52c-12.01,24.94 -21.79,49.88 -23.94,64.47l-101.81 0 279.84 -585.59 58.31 0 266.87 587.39 -155.33 -0.15c-7.99,-49.08 -46.68,-124.1 -61.33,-163.63l-215.84 0z"/>
   <path class="fil0" d="M7134.96 2270.89l69.18 0c61.59,0 109.87,-19.29 145.01,-58.02 35.13,-38.59 52.77,-104.64 52.77,-198.3 0,-51.97 -7.33,-94.22 -22.11,-126.61 -14.65,-32.53 -35.95,-56.33 -63.89,-71.54 -27.8,-15.35 -61.59,-22.95 -101.33,-22.95l-79.62 0 0 477.42zm156.54 -526.44l0 0c20.89,0 40.3,2.05 58.19,6.34 17.92,4.3 35.27,10.56 52.23,18.87 31.2,14.79 56.83,34.64 76.64,59.57 19.94,24.93 34.58,53.1 44.22,84.78 9.49,31.55 14.24,65.49 14.24,101.4 0,47.04 -7.46,89.43 -22.24,127.31 -14.79,37.74 -35.81,69.85 -62.8,96.05 -26.99,26.34 -58.46,46.33 -94.55,60.27 -36.08,13.94 -74.87,20.84 -116.38,20.84l-230.35 0 0 -575.44 280.8 0z"/>
   <polygon class="fil0" points="7985.51,1803.56 7804.41,1803.56 7804.41,1991.75 7985.51,1991.75 7985.51,2053.08 7804.41,2053.08 7804.41,2255.05 7985.51,2255.05 7985.51,2319.75 7677.96,2319.75 7677.96,1740.6 7985.51,1740.6 "/>
   <path class="fil0" d="M8677.83 1740.6l129.27 1.44 0 575.24 -128.66 -0.07 0 -368.74 -8.7 -4.6 -182.09 370.42 -51.43 0 -190.97 -367.17 -7.34 2.53 0 369.7 -82.94 0.43 0 -579.71 128.56 0c34.45,83.87 104.74,189.67 195.08,388.11l11.8 0.24 187.43 -387.84z"/>
   <path class="fil0" d="M9154.34 1957.36c0.65,-1.42 6.49,-1.89 7.15,-3.31l98.1 -212 92.21 0 -155.16 315.55 0 261.13 -128.66 0 0 -261.99 -58.51 -128.78 -91.02 -185.91 142.14 0c28.95,71.47 64.71,143.59 93.77,215.31z"/>
   <path class="fil0" d="M952.89 0c711.43,0 1288.15,576.73 1288.15,1288.16 0,537.36 -329.07,997.8 -796.65,1190.98l-109.51 -326.33 -112.85 -336.3 -822.52 0 -187.61 525.43c-77.32,-54.48 -148.41,-117.2 -211.91,-186.97l722.06 -1828.4 417.13 -78.23 545.03 1562.98c109.15,-169.69 172.49,-371.63 172.49,-588.38 0,-601.54 -487.63,-1089.17 -1089.16,-1089.17 -275.67,0 -527.37,102.46 -719.22,271.31l-16.29 -17.55c233.86,-239.08 560,-387.53 920.86,-387.53zm192.43 1587.91l0 0 -321.78 -958.93 -342.39 958.93 664.18 0z"/>
   <polygon class="fil0" points="9509.02,2217.19 9509.02,2318.74 9380.37,2318.74 9380.37,2217.19 "/>
   <path class="fil0" d="M10757.67 2205.69l0 -152.41 0 -6.56 0 -53.4 -124.27 0 -89.29 0 0 59.96 100.46 0 0 183.7c-29.5,13.32 -80.39,25.59 -112.99,25.59 -111.66,0 -202.17,-103.99 -202.17,-232.26 0,-128.28 65.17,-230.02 187.99,-231.62 122.82,-1.6 156.72,54.37 186.35,108.8l53.92 -51.04c-31.53,-47.79 -103.5,-127.25 -261.98,-127.25 -158.48,0 -304.98,130.56 -304.98,296.85 0,166.29 127.78,305.35 304.98,305.35 87.18,0 201.52,-44.24 261.98,-104.74l0 -20.97z"/>
  </g>
 </g>
</svg>